<?xml version="1.0" encoding="UTF-8" standalone="no"?>
<!DOCTYPE svg PUBLIC "-//W3C//DTD SVG 1.1//EN" "http://www.w3.org/Graphics/SVG/1.1/DTD/svg11.dtd">
<svg width="100%" height="100%" viewBox="0 0 256 256" version="1.1" xmlns="http://www.w3.org/2000/svg" xmlns:xlink="http://www.w3.org/1999/xlink" xml:space="preserve" xmlns:serif="http://www.serif.com/" style="fill-rule:evenodd;clip-rule:evenodd;stroke-linejoin:round;stroke-miterlimit:2;">
    <g transform="matrix(1.84576,0,0,1.84576,-25.2573,-16.7539)">
        <path d="M85.486,141.204L21.343,141.204C17.309,140.991 14.106,137.614 14.106,133.575C14.106,133.417 14.111,133.26 14.12,133.102C14.12,85.185 32.778,56.481 57.315,40.139L56.944,39.352L65.046,39.352C61.831,43.671 58.864,48.169 56.157,52.824C53.479,57.788 51.203,62.959 49.352,68.287L55.694,72.5C57.569,66.987 59.875,61.631 62.593,56.481C65.962,50.478 69.802,44.75 74.074,39.352L78.704,39.352C81.792,46.688 83.999,54.366 85.278,62.222C86.283,68.125 86.779,74.104 86.759,80.093L94.074,74.954C93.866,70.298 93.371,65.66 92.593,61.065C91.39,53.658 89.468,46.385 86.852,39.352L95.417,39.352L99.583,30.093L52.731,30.093L47.176,18.056C46.921,17.471 46.789,16.841 46.789,16.204C46.789,13.675 48.861,11.591 51.389,11.574L114.861,11.574C117.389,11.591 119.461,13.675 119.461,16.204C119.461,16.841 119.329,17.471 119.074,18.056L108.935,40.185C126.094,51.6 140.338,69.09 147.37,94.962C140.374,85.019 128.811,78.516 115.741,78.516C94.41,78.516 77.093,95.834 77.093,117.164C77.093,126.248 80.233,134.603 85.486,141.204Z"/>
    </g>
    <g transform="matrix(1.20407,0,0,1.20407,-29.8378,-28.3177)">
        <path d="M190.519,152.01L190.519,227.469C190.519,230.136 188.353,232.302 185.686,232.302L176.019,232.302C173.352,232.302 171.186,230.136 171.186,227.469L171.186,152.01C171.186,149.342 173.352,147.177 176.019,147.177L185.686,147.177C188.353,147.177 190.519,149.342 190.519,152.01Z"/>
        <g transform="matrix(6.12323e-17,1,-1,6.12323e-17,370.592,8.88672)">
            <path d="M190.519,152.01L190.519,227.469C190.519,230.136 188.353,232.302 185.686,232.302L176.019,232.302C173.352,232.302 171.186,230.136 171.186,227.469L171.186,152.01C171.186,149.342 173.352,147.177 176.019,147.177L185.686,147.177C188.353,147.177 190.519,149.342 190.519,152.01Z"/>
        </g>
    </g>
</svg>
