<?xml version="1.0" encoding="UTF-8" standalone="no"?>
<!DOCTYPE svg PUBLIC "-//W3C//DTD SVG 1.1//EN" "http://www.w3.org/Graphics/SVG/1.1/DTD/svg11.dtd">
<svg width="100%" height="100%" viewBox="0 0 256 256" version="1.1" xmlns="http://www.w3.org/2000/svg" xmlns:xlink="http://www.w3.org/1999/xlink" xml:space="preserve" xmlns:serif="http://www.serif.com/" style="fill-rule:evenodd;clip-rule:evenodd;stroke-linejoin:round;stroke-miterlimit:2;">
    <g transform="matrix(3.20771,0,0,3.20771,-6461.09,-2940.91)">
        <path d="M2054.14,917.304C2075.9,917.304 2093.57,934.971 2093.57,956.732C2093.57,978.492 2075.9,996.159 2054.14,996.159C2032.38,996.159 2014.72,978.492 2014.72,956.732C2014.72,934.971 2032.38,917.304 2054.14,917.304ZM2051.23,919.649C2032.87,921.073 2018.23,935.857 2017.03,954.283L2024.66,956.262L2016.95,956.262C2016.95,956.419 2016.95,956.575 2016.95,956.732C2016.95,956.888 2016.95,957.045 2016.95,957.201L2024.66,957.201L2017.03,959.18C2018.23,977.606 2032.87,992.39 2051.23,993.814L2053.2,986.211L2053.2,993.915C2053.52,993.923 2053.83,993.926 2054.14,993.926L2054.14,986.211L2056.13,993.874C2074.92,992.883 2090.04,977.913 2091.26,959.18L2083.62,957.201L2091.33,957.201C2091.34,957.045 2091.34,956.888 2091.34,956.732C2091.34,956.575 2091.34,956.419 2091.33,956.262L2083.62,956.262L2091.26,954.283C2090.04,935.55 2074.92,920.58 2056.13,919.589L2054.14,927.252L2054.14,919.537C2053.83,919.537 2053.52,919.541 2053.2,919.548L2053.2,927.252L2051.23,919.649ZM2046.3,939.115C2046.3,939.115 2046.13,939.404 2045.92,939.459C2045.72,939.515 2042.22,939.714 2041.37,939.716C2041.17,939.717 2041.07,939.495 2040.82,939.472C2040.33,939.425 2039.65,939.348 2039.11,939.312C2038.58,939.276 2037.84,939.33 2037.09,939.025C2036.34,938.721 2034.65,937.591 2033.76,937.018C2032.86,936.444 2031.3,936.068 2030.51,935.924C2029.72,935.781 2028.74,935.387 2027.86,934.508C2026.98,933.63 2026.82,932.232 2027.36,931.961C2027.89,931.689 2028.16,932.77 2028.68,932.967C2029.02,933.096 2029.68,933.406 2030.25,933.312C2030.55,933.263 2030.34,932.439 2031.03,932.806C2031.52,933.065 2033.58,934.508 2034.6,934.921C2035.62,935.333 2038.61,936.193 2039.6,936.552C2040.58,936.91 2041.79,937.609 2042.41,937.824C2043.04,938.039 2044.29,938.29 2045.07,938.506C2045.84,938.721 2046.3,939.115 2046.3,939.115ZM2061.67,939.124C2061.67,939.124 2062.41,938.64 2063.18,938.353C2063.95,938.066 2073.43,934.912 2074.06,934.625C2074.69,934.338 2075.85,933.32 2076.98,932.944C2078.11,932.567 2079.56,932.908 2079.86,932.764C2080.17,932.621 2080.44,932.137 2080.6,932.012C2080.76,931.886 2081.46,931.958 2081.3,932.621C2081.14,933.284 2080.6,934.628 2079.93,935.005C2079.27,935.381 2078.54,935.74 2078.05,935.811C2077.57,935.883 2076.83,935.973 2076.06,936.224C2075.29,936.475 2073.71,936.976 2072.6,937.962C2071.49,938.948 2071.2,938.805 2069.82,939.235C2068.45,939.665 2068.59,939.36 2067.82,939.504C2067.05,939.647 2063.14,939.495 2062.12,939.432C2061.94,939.421 2061.67,939.124 2061.67,939.124ZM2060.32,957.24C2060.91,957.722 2061.97,959.973 2062.14,960.588C2062.24,960.916 2063.09,963.364 2063.28,964.018C2063.46,964.672 2063.89,966.737 2064.13,967.861C2064.37,968.985 2065,970.178 2065.22,970.631C2065.43,971.083 2066.39,973.126 2066.56,973.517C2066.73,973.907 2067.3,975.57 2067.53,976.465C2067.65,976.92 2067.81,977.919 2068.05,978.643C2068.27,979.342 2068.56,979.768 2068.73,980.055C2069.06,980.64 2069.54,980.916 2069.97,981.214C2070.39,981.512 2070.93,981.655 2071.27,981.856C2071.82,982.177 2071.87,982.831 2071.69,983.313C2071.5,983.795 2071.56,984.208 2070.42,983.944C2070.09,983.865 2069.66,983.565 2069.17,983.29C2068.69,983.015 2068.6,983.003 2068.1,982.969C2067.59,982.934 2066.82,982.866 2066.62,982.648C2066.41,982.43 2066.35,981.546 2066.31,981.214C2066.26,980.881 2066.05,980.445 2065.7,979.791C2065.34,979.137 2065.25,978.954 2064.87,978.426C2064.49,977.899 2063.97,976.981 2063.63,976.453C2063.3,975.925 2063.05,975.237 2062.68,974.492C2062.31,973.746 2062.19,973.012 2062.08,972.553C2061.98,972.094 2061.53,971.383 2061.25,970.924C2060.96,970.465 2060.32,969.605 2060.08,969.146C2059.84,968.687 2059.62,968.152 2059.64,967.976C2059.67,967.76 2060.09,958.63 2060.13,957.837C2060.14,957.671 2060.22,957.467 2060.32,957.24ZM2047.86,957.093C2047.86,957.093 2047.93,964.455 2047.91,965.309C2047.91,965.52 2048.11,966.397 2048.27,967.136C2048.43,967.875 2048.19,968.445 2047.79,969.117C2047.38,969.789 2046.51,971.244 2045.99,972.231C2045.13,973.882 2045.12,974.981 2044.54,976.107C2044.31,976.56 2043.34,977.899 2042.58,979.104C2041.98,980.046 2041.58,980.93 2041.56,981.235C2041.51,981.93 2041.49,982.336 2041.07,982.739C2040.64,983.142 2040.12,982.784 2039.27,983.053C2038.42,983.322 2037.87,983.904 2037.37,984.039C2036.88,984.173 2036.38,984.231 2035.95,984.074C2035.53,983.918 2035.53,983.436 2035.49,983.1C2035.44,982.764 2035.51,982.247 2036.5,981.879C2037.18,981.625 2037.68,981.441 2038.31,980.901C2038.9,980.394 2039.3,979.804 2039.5,979.446C2039.9,978.706 2040.6,975.547 2041.13,974.068C2041.48,973.113 2042.38,971.26 2043.04,969.603C2043.41,968.696 2043.72,967.643 2043.8,967.302C2044.02,966.339 2044.92,962.664 2045.48,961.163C2046.04,959.662 2047.86,957.093 2047.86,957.093ZM2056.51,938.759C2056.8,939.38 2058.82,939.22 2060.15,939.347C2060.73,939.403 2061.31,939.764 2062.41,939.955C2063.45,940.135 2064.75,940.09 2065.22,940.103C2066.17,940.131 2069.61,939.767 2070.45,939.795C2071.29,939.823 2074.38,939.795 2075.38,939.795C2076.39,939.795 2078.1,938.927 2079.3,939.011C2080.51,939.095 2082.3,939.627 2082.41,940.58C2082.52,941.532 2080.2,942.092 2078.91,942.232C2077.62,942.372 2076.95,941.756 2075.83,941.868C2075.18,941.933 2073.6,942.444 2072.05,942.794C2070.93,943.046 2069.78,943.172 2069.25,943.184C2067.99,943.212 2066.81,943.268 2066.06,943.38C2065.3,943.492 2064.01,944.052 2062.3,944.164C2060.6,944.276 2060.23,945.593 2060.04,946.601C2059.84,947.609 2058.8,949.682 2058.75,951.698C2058.69,953.714 2059.76,956.991 2059.78,958.195C2059.81,959.4 2059.56,959.82 2059.5,960.604C2059.45,961.388 2059.45,962.788 2059.45,965.029C2059.45,967.269 2058.64,969.342 2058.64,970.518C2058.64,971.103 2058.95,971.937 2059.06,972.838C2059.16,973.751 2059.03,974.728 2059,975.223C2058.91,976.524 2058.22,978.285 2057.89,980.292C2057.69,981.529 2057.77,982.539 2057.82,983.009C2057.96,984.241 2059.64,985.753 2060.18,986.622C2060.71,987.49 2059.67,988.218 2059.03,988.526C2058.38,988.834 2057.96,988.862 2056.9,987.462C2056.36,986.756 2055.66,985.53 2055.36,984.59C2055.07,983.664 2055.07,983.065 2055.05,982.774C2054.99,982.186 2055.38,981.345 2055.3,979.704C2055.28,979.157 2054.9,977.32 2054.71,975.863C2054.58,974.857 2054.58,974.193 2054.6,973.795C2054.64,973.038 2055.29,971.697 2055.11,971.134C2054.45,969.08 2054.52,966.419 2053.9,964.973C2053.47,966.567 2052.6,970.427 2052.84,971.638C2052.93,972.133 2053.23,973.319 2053.26,973.963C2053.29,974.607 2052.92,977.128 2052.81,978.248C2052.7,979.368 2052.64,984.101 2052.61,984.633C2052.59,985.165 2050.6,988.134 2050.09,988.498C2049.59,988.862 2049.39,988.61 2048.33,988.302C2047.27,987.994 2047.46,987.042 2047.8,986.426C2048.13,985.81 2049.95,983.849 2050.12,982.953C2050.29,982.057 2050.35,981.216 2050.09,980.488C2049.84,979.76 2048.82,974.915 2048.73,974.355C2048.65,973.795 2048.75,973.403 2049.03,972.451C2049.31,971.498 2048.91,968.39 2048.55,966.317C2048.18,964.245 2048.18,959.596 2048.12,957.747C2048.07,955.899 2049.14,954.079 2049.2,952.426C2049.25,950.774 2047.85,946.153 2047.24,944.864C2046.62,943.576 2044.77,944.304 2044.02,944.052C2043.26,943.8 2042.76,943.38 2041.27,943.212C2039.79,943.044 2038.56,943.212 2037.15,943.044C2035.75,942.876 2033.21,942.036 2032.28,941.896C2031.36,941.756 2031.02,941.98 2029.57,942.148C2028.11,942.316 2025.88,941.69 2025.87,940.86C2025.84,939.465 2028.27,939.105 2028.98,939.067C2030.15,939.006 2031.52,939.707 2032.81,939.795C2034.67,939.921 2038.43,939.791 2040.1,939.823C2040.53,939.832 2040.51,940.041 2040.94,940.086C2041.41,940.135 2042.32,940.02 2042.78,939.991C2044.24,939.903 2047.36,939.536 2048.8,939.291C2049.71,939.138 2051.01,939.326 2051.46,938.524C2052.02,937.539 2050.82,936.363 2050.7,935.609C2050.48,934.183 2050.66,932.237 2051.21,931.309C2051.99,930.023 2054.9,930.115 2055.86,930.665C2056.4,930.973 2056.87,931.548 2057.01,932.409C2057.12,933.088 2057.02,934.428 2056.98,935.202C2056.91,936.553 2056.1,937.906 2056.51,938.759Z"/>
    </g>
</svg>
