<?xml version="1.0" encoding="UTF-8" standalone="no"?>
<!DOCTYPE svg PUBLIC "-//W3C//DTD SVG 1.1//EN" "http://www.w3.org/Graphics/SVG/1.1/DTD/svg11.dtd">
<svg width="100%" height="100%" viewBox="0 0 256 256" version="1.1" xmlns="http://www.w3.org/2000/svg" xmlns:xlink="http://www.w3.org/1999/xlink" xml:space="preserve" xmlns:serif="http://www.serif.com/" style="fill-rule:evenodd;clip-rule:evenodd;stroke-linejoin:round;stroke-miterlimit:2;">
    <g transform="matrix(1.73293,0,0,1.73293,-3768.21,-847.724)">
        <path d="M2223.39,522.332C2218.48,535.196 2222.75,548.853 2227.56,552.007C2231.72,554.727 2234.11,550.579 2232.01,546.127C2224.78,530.843 2231.56,498.496 2259.15,490.88C2245.63,527.273 2282.57,524.922 2286.4,551.976C2292.19,592.874 2232.71,607.645 2213.89,569.871C2210.03,562.123 2209.15,551.973 2210.8,544.063C2212.73,534.841 2216.88,528.107 2223.39,522.332ZM2251.4,535.336C2247.61,544.321 2252.34,550.443 2252.25,557.061C2252.18,561.349 2249.14,567.56 2240.14,570.471C2241.4,571.796 2247.61,577.556 2255.17,575.554C2260.61,574.112 2264.72,571.403 2267.06,562.693C2270.62,549.435 2254.2,546.189 2251.4,535.336ZM2195.6,611.405L2185.05,609.165C2182.1,608.535 2180.2,605.622 2180.83,602.662L2183.11,591.937C2183.74,588.978 2186.65,587.086 2189.61,587.715L2311.61,613.645C2314.57,614.275 2316.46,617.188 2315.83,620.148L2313.55,630.873C2312.92,633.832 2310.01,635.724 2307.05,635.095L2248.33,622.614L2189.61,635.095C2186.65,635.724 2183.74,633.832 2183.11,630.873L2180.83,620.148C2180.2,617.188 2182.1,614.275 2185.05,613.645L2195.6,611.405ZM2314.01,607.989L2262.84,597.112L2307.05,587.715C2310.01,587.086 2312.92,588.978 2313.55,591.937L2315.83,602.662C2316.26,604.705 2315.5,606.726 2314.01,607.989Z"/>
    </g>
</svg>
