<?xml version="1.0" encoding="UTF-8" standalone="no"?>
<!DOCTYPE svg PUBLIC "-//W3C//DTD SVG 1.1//EN" "http://www.w3.org/Graphics/SVG/1.1/DTD/svg11.dtd">
<svg width="100%" height="100%" viewBox="0 0 256 256" version="1.1" xmlns="http://www.w3.org/2000/svg" xmlns:xlink="http://www.w3.org/1999/xlink" xml:space="preserve" xmlns:serif="http://www.serif.com/" style="fill-rule:evenodd;clip-rule:evenodd;stroke-linejoin:round;stroke-miterlimit:2;">
    <g transform="matrix(19.4507,0,0,19.4507,-41305.5,-12692.5)">
        <path d="M2130.18,652.644C2130.55,652.644 2133.11,653.331 2133.43,653.513C2133.74,653.694 2135.62,655.573 2135.8,655.887C2135.98,656.202 2136.67,658.768 2136.67,659.131C2136.67,659.494 2135.98,662.06 2135.8,662.374C2135.62,662.689 2133.74,664.567 2133.43,664.749C2133.11,664.93 2130.55,665.618 2130.18,665.618C2129.82,665.618 2127.25,664.93 2126.94,664.749C2126.62,664.567 2124.74,662.689 2124.56,662.374C2124.38,662.06 2123.7,659.494 2123.7,659.131C2123.7,658.768 2124.38,656.202 2124.56,655.887C2124.74,655.573 2126.62,653.694 2126.94,653.513C2127.25,653.331 2129.82,652.644 2130.18,652.644ZM2130.18,653.788C2129.88,653.788 2127.77,654.354 2127.51,654.504C2127.25,654.653 2125.7,656.2 2125.55,656.459C2125.41,656.718 2124.84,658.832 2124.84,659.131C2124.84,659.43 2125.41,661.543 2125.55,661.802C2125.7,662.061 2127.25,663.608 2127.51,663.758C2127.77,663.907 2129.88,664.474 2130.18,664.474C2130.48,664.474 2132.59,663.907 2132.85,663.758C2133.11,663.608 2134.66,662.061 2134.81,661.802C2134.96,661.543 2135.53,659.43 2135.53,659.131C2135.53,658.832 2134.96,656.718 2134.81,656.459C2134.66,656.2 2133.11,654.653 2132.85,654.504C2132.59,654.354 2130.48,653.788 2130.18,653.788ZM2130.18,654.054C2130.47,654.054 2132.47,654.592 2132.72,654.734C2132.97,654.876 2134.44,656.346 2134.58,656.592C2134.72,656.838 2135.26,658.846 2135.26,659.131C2135.26,659.415 2134.72,661.423 2134.58,661.669C2134.44,661.915 2132.97,663.385 2132.72,663.527C2132.47,663.67 2130.47,664.208 2130.18,664.208C2129.9,664.208 2127.89,663.67 2127.64,663.527C2127.4,663.385 2125.93,661.915 2125.78,661.669C2125.64,661.423 2125.11,659.415 2125.11,659.131C2125.11,658.846 2125.64,656.838 2125.78,656.592C2125.93,656.346 2127.4,654.876 2127.64,654.734C2127.89,654.592 2129.9,654.054 2130.18,654.054ZM2130.18,654.256C2129.91,654.256 2127.98,654.773 2127.74,654.909C2127.51,655.045 2126.1,656.457 2125.96,656.693C2125.82,656.93 2125.31,658.858 2125.31,659.131C2125.31,659.403 2125.82,661.332 2125.96,661.568C2126.1,661.804 2127.51,663.216 2127.74,663.352C2127.98,663.489 2129.91,664.005 2130.18,664.005C2130.45,664.005 2132.38,663.489 2132.62,663.352C2132.86,663.216 2134.27,661.804 2134.4,661.568C2134.54,661.332 2135.06,659.403 2135.06,659.131C2135.06,658.858 2134.54,656.93 2134.4,656.693C2134.27,656.457 2132.86,655.045 2132.62,654.909C2132.38,654.773 2130.45,654.256 2130.18,654.256ZM2132.16,658.978L2132.16,662.19C2131.49,662.465 2130.91,662.603 2130.42,662.603C2129.6,662.603 2128.94,662.332 2128.44,661.79C2128.19,661.515 2128,661.168 2127.87,660.749C2127.75,660.33 2127.69,659.844 2127.69,659.289C2127.69,656.869 2128.7,655.658 2130.73,655.658C2131.47,655.658 2132.19,655.783 2132.89,656.033C2132.89,656.427 2132.9,656.729 2132.91,656.941C2132.92,657.123 2132.93,657.345 2132.93,657.607L2132.8,657.607C2132.7,657.15 2132.46,656.79 2132.09,656.528C2131.7,656.266 2131.24,656.135 2130.71,656.135C2129.06,656.135 2128.24,657.123 2128.24,659.099C2128.24,661.105 2128.94,662.108 2130.34,662.108C2130.9,662.108 2131.3,661.974 2131.53,661.708C2131.6,661.568 2131.64,661.31 2131.64,660.933L2131.64,660.076C2131.64,659.463 2131.42,659.109 2130.97,659.016L2130.97,658.902C2131.12,658.911 2131.34,658.923 2131.62,658.94C2131.84,658.957 2132.02,658.97 2132.16,658.978ZM2132.63,662.038L2132.63,658.978C2132.84,658.97 2133.02,658.957 2133.19,658.94C2133.47,658.915 2133.65,658.902 2133.73,658.902L2133.73,659.016C2133.35,659.173 2133.15,659.588 2133.15,660.261L2133.15,661.873C2133.12,661.877 2133.04,661.902 2132.91,661.949C2132.84,661.966 2132.78,661.983 2132.74,662C2132.7,662.017 2132.66,662.029 2132.63,662.038ZM2128.01,656.363C2127.49,657.095 2127.23,658.022 2127.23,659.143C2127.23,659.406 2127.26,659.78 2127.32,660.267C2127.38,660.745 2127.56,661.242 2127.87,661.759C2127.04,661.115 2126.63,660.239 2126.63,659.131C2126.63,658.449 2126.77,657.876 2127.05,657.41C2127.32,656.953 2127.64,656.604 2128.01,656.363Z"/>
    </g>
</svg>
