<?xml version="1.0" encoding="UTF-8" standalone="no"?>
<!DOCTYPE svg PUBLIC "-//W3C//DTD SVG 1.1//EN" "http://www.w3.org/Graphics/SVG/1.1/DTD/svg11.dtd">
<svg width="100%" height="100%" viewBox="0 0 256 256" version="1.1" xmlns="http://www.w3.org/2000/svg" xmlns:xlink="http://www.w3.org/1999/xlink" xml:space="preserve" xmlns:serif="http://www.serif.com/" style="fill-rule:evenodd;clip-rule:evenodd;stroke-linejoin:round;stroke-miterlimit:2;">
    <g transform="matrix(6.84262,0,0,6.84262,-10.1461,-9.6014)">
        <path d="M20.187,1.67L18.82,6.678C18.728,6.875 18.681,7.089 18.681,7.307C18.681,8.137 19.354,8.811 20.185,8.811C21.016,8.811 21.689,8.138 21.689,7.307C21.689,7.25 21.686,7.195 21.68,7.141L21.681,7.141L21.678,7.127C21.66,6.98 21.621,6.836 21.561,6.701L20.187,1.67L20.187,1.67ZM29.422,4.13L25.812,7.706C25.341,7.96 25.021,8.458 25.021,9.031C25.021,9.862 25.695,10.535 26.525,10.535C26.578,10.535 26.629,10.532 26.68,10.527C27.285,10.939 27.85,11.406 28.367,11.924C32.889,16.445 32.888,23.753 28.367,28.275C27.85,28.792 27.285,29.259 26.68,29.67C26.63,29.665 26.578,29.663 26.526,29.663C25.695,29.663 25.022,30.336 25.022,31.167C25.022,31.714 25.315,32.192 25.752,32.455L29.4,36.069L27.951,30.557C28.464,30.176 28.948,29.758 29.4,29.307L29.916,28.79L29.89,28.764C30.141,28.483 30.381,28.19 30.607,27.887L36.158,29.346L32.125,25.274C32.632,24.105 32.964,22.868 33.112,21.603L38.628,20.096L33.116,18.591C32.973,17.337 32.648,16.111 32.152,14.951L36.154,10.91L30.661,12.354C29.9,11.328 28.994,10.418 27.97,9.655L29.422,4.13L29.422,4.13ZM10.961,4.131L12.298,9.217C12.315,9.355 12.349,9.487 12.401,9.61L12.413,9.656C11.908,10.033 11.43,10.446 10.984,10.891C10.528,11.347 10.107,11.836 9.723,12.353L4.221,10.907L8.229,14.954C7.733,16.113 7.407,17.338 7.262,18.591L1.75,20.096L7.262,21.602C7.408,22.87 7.739,24.11 8.246,25.282L4.216,29.35L9.76,27.893C10.514,28.901 11.409,29.795 12.419,30.547C12.338,30.725 12.293,30.916 12.286,31.111L10.983,36.068L14.804,32.283L14.801,32.277C15.103,32.002 15.293,31.607 15.293,31.167C15.293,30.336 14.619,29.663 13.789,29.663C13.758,29.663 13.727,29.664 13.697,29.666C13.094,29.256 12.532,28.79 12.017,28.274C7.495,23.753 7.495,16.445 12.017,11.924C12.532,11.408 13.095,10.942 13.697,10.532C13.728,10.534 13.759,10.535 13.789,10.535C14.62,10.535 15.294,9.861 15.294,9.031C15.294,8.545 15.062,8.114 14.705,7.839L10.961,4.131L10.961,4.131ZM20.917,11.152L20.917,14.982L23.542,16.489L27.15,14.532L20.917,11.152ZM19.457,11.176L13.228,14.532L16.846,16.482L19.457,14.993L19.457,11.176L19.457,11.176ZM12.492,15.794L12.492,24.701L16.113,22.75L16.113,17.745L12.492,15.794ZM27.882,15.796L24.261,17.76L24.261,22.736L27.882,24.7L27.882,15.796L27.882,15.796ZM20.197,16.252L17.573,17.748L17.573,22.771L20.197,24.268L22.801,22.772L22.801,17.747L20.197,16.252L20.197,16.252ZM23.562,24.019L20.917,25.538L20.917,29.214L27.029,25.899L23.562,24.019ZM16.825,24.025L13.349,25.898L19.457,29.189L19.457,25.526L16.825,24.025L16.825,24.025ZM20.185,31.387C19.354,31.387 18.681,32.061 18.681,32.891C18.681,33.106 18.726,33.309 18.807,33.493L20.187,38.549L21.577,33.461C21.621,33.353 21.652,33.238 21.67,33.119L21.675,33.101L21.673,33.101C21.682,33.032 21.689,32.963 21.689,32.891C21.689,32.061 21.016,31.387 20.185,31.387L20.185,31.387Z" style="fill-rule:nonzero;"/>
    </g>
</svg>
