<?xml version="1.0" encoding="UTF-8" standalone="no"?><!DOCTYPE svg PUBLIC "-//W3C//DTD SVG 1.1//EN" "http://www.w3.org/Graphics/SVG/1.1/DTD/svg11.dtd"><svg width="100%" height="100%" viewBox="0 0 1267 68" version="1.1" xmlns="http://www.w3.org/2000/svg" xmlns:xlink="http://www.w3.org/1999/xlink" xml:space="preserve" xmlns:serif="http://www.serif.com/" style="fill-rule:evenodd;clip-rule:evenodd;stroke-linejoin:round;stroke-miterlimit:2;"><path d="M576.652,35.447l45.429,32.172l-49.755,-13.106l-539.477,0l-32.849,-35.786l46.74,16.72l529.912,0Zm-1.239,8.207l-535.809,-0.128l-11.632,-6.188l10.296,9.363l536.022,-0l13.313,4.544l-12.19,-7.591Zm113.998,-8.207l529.912,0l46.74,-16.72l-32.849,35.786l-539.477,0l-49.755,13.106l45.429,-32.172Zm1.239,8.207l-12.19,7.591l13.313,-4.544l536.022,-0l10.296,-9.363l-11.632,6.188l-535.809,0.128Zm-63.581,18.748l-35.389,-34.201l19.364,-19.864l16.025,54.065Zm-11.942,-19.981l-5.891,-19.875l-7.118,7.302l13.009,12.573Zm25.19,19.981l16.025,-54.065l19.364,19.864l-35.389,34.201Zm11.942,-19.981l13.009,-12.573l-7.118,-7.302l-5.891,19.875Zm-18.121,19.708l-12.687,-61.681l11.018,5.676l11.518,-6.123l-9.849,62.128Z" style="fill:#fff;"/></svg>