<?xml version="1.0" encoding="UTF-8" standalone="no"?>
<!DOCTYPE svg PUBLIC "-//W3C//DTD SVG 1.1//EN" "http://www.w3.org/Graphics/SVG/1.1/DTD/svg11.dtd">
<svg width="100%" height="100%" viewBox="0 0 256 256" version="1.1" xmlns="http://www.w3.org/2000/svg" xmlns:xlink="http://www.w3.org/1999/xlink" xml:space="preserve" xmlns:serif="http://www.serif.com/" style="fill-rule:evenodd;clip-rule:evenodd;stroke-linejoin:round;stroke-miterlimit:2;">
    <g transform="matrix(12.5105,0,0,12.5105,-34.6366,-9.4592)">
        <path d="M5,21C4.45,21 3.979,20.804 3.587,20.413C3.196,20.021 3,19.55 3,19L3,5C3,4.45 3.196,3.979 3.587,3.587C3.979,3.196 4.45,3 5,3L13.925,3L11.925,5L5,5L5,19L19,19L19,12.05L21,10.05L21,19C21,19.55 20.804,20.021 20.412,20.413C20.021,20.804 19.55,21 19,21L5,21ZM9.308,15.551C9.098,15.58 8.886,15.511 8.734,15.362C8.582,15.214 8.508,15.004 8.532,14.793L9,10.75L18.175,1.575C18.375,1.375 18.6,1.225 18.85,1.125C19.1,1.025 19.35,0.975 19.6,0.975C19.867,0.975 20.121,1.025 20.362,1.125C20.604,1.225 20.825,1.375 21.025,1.575L22.425,3C22.608,3.2 22.75,3.421 22.85,3.663C22.95,3.904 23,4.15 23,4.4C23,4.65 22.954,4.896 22.862,5.137C22.771,5.379 22.625,5.6 22.425,5.8L13.25,15L9.308,15.551ZM19.682,5.559L20.521,4.757L19.157,3.418L18.342,4.22L19.682,5.559ZM16.775,5.8L11,11.575L10.715,13.389L12.4,13L18.2,7.2L17.5,6.5L16.775,5.8Z"/>
    </g>
</svg>
