<?xml version="1.0" encoding="UTF-8" standalone="no"?>
<!DOCTYPE svg PUBLIC "-//W3C//DTD SVG 1.1//EN" "http://www.w3.org/Graphics/SVG/1.1/DTD/svg11.dtd">
<svg width="100%" height="100%" viewBox="0 0 256 256" version="1.1" xmlns="http://www.w3.org/2000/svg" xmlns:xlink="http://www.w3.org/1999/xlink" xml:space="preserve" xmlns:serif="http://www.serif.com/" style="fill-rule:evenodd;clip-rule:evenodd;stroke-linejoin:round;stroke-miterlimit:2;">
    <g transform="matrix(1.08628,0,0,1.08628,-10.1908,-8.88707)">
        <g transform="matrix(1.53293,0,0,1.53293,0,0)">
            <path d="M80.66,6.098C44.91,5.728 6.469,31.556 6.423,79.6L13.39,62.869C10.302,86.398 10.867,110.798 26.017,128.788L12.435,122.837C25.208,145.55 53.559,152.451 77.817,152.951C40.4,139.941 22.093,111.418 20.805,80.238C18.617,11.299 105.654,9.374 131.736,55.574C130.623,49.229 128.929,43.065 126.652,37.309C151.849,66.33 145.953,107.255 119.721,119.677C111.827,120.963 103.794,123.603 99.88,125.862C80.821,136.865 97.839,167.052 117.205,155.871C120.278,154.097 124.824,150.239 129.085,145.665C150.035,126.29 161.019,107.176 159.394,84.161C157.271,93.634 153.152,103.01 147.798,111.728C168.357,63.934 150.387,25.826 100.65,13.631C104.588,15.53 108.3,18.067 111.676,21.235C92.986,13.503 68.993,13.871 50.841,22.376C59.978,13.847 71.927,8.141 84.11,6.216C82.964,6.149 81.814,6.11 80.661,6.098L80.66,6.098Z"/>
        </g>
        <g transform="matrix(1.53293,0,0,1.53293,-4.73515,-11.2581)">
            <path d="M73.975,61.236L67.776,90.984C66.813,92.224 65.94,93.214 64.835,94.219L57.61,79.45C52.905,75.472 48.052,76.584 50.219,83.333L59.294,101.96C60.752,105.695 62.556,108.692 64.229,111.245C73.365,125.178 85.241,122.72 95.253,114.355L121.066,100.142C124.01,95.61 122.158,91.958 116.928,92.819L97.998,103.285C97.504,102.258 96.935,101.152 96.352,100.189L115.96,81.641C118.285,76.813 114.042,73.288 110.25,75.556L91.081,93.713C90.314,92.959 89.702,92.24 88.879,91.584L103.555,66.166C105.332,60.947 99.686,58.441 96.155,61.893L81.225,87.38C79.992,86.954 78.712,86.664 77.451,86.487L82.287,62.816C82.647,57.779 75.642,55.673 73.976,61.236L73.975,61.236Z"/>
        </g>
    </g>
</svg>
