<?xml version="1.0" encoding="UTF-8" standalone="no"?>
<!DOCTYPE svg PUBLIC "-//W3C//DTD SVG 1.1//EN" "http://www.w3.org/Graphics/SVG/1.1/DTD/svg11.dtd">
<svg width="100%" height="100%" viewBox="0 0 256 256" version="1.1" xmlns="http://www.w3.org/2000/svg" xmlns:xlink="http://www.w3.org/1999/xlink" xml:space="preserve" xmlns:serif="http://www.serif.com/" style="fill-rule:evenodd;clip-rule:evenodd;stroke-linejoin:round;stroke-miterlimit:2;">
    <g transform="matrix(16.3589,0,0,16.3589,-34724.3,-10635)">
        <path d="M2124.28,661.32C2123.58,660.868 2123.05,660.469 2122.93,660.266C2122.56,659.624 2122.56,654.398 2122.93,653.755C2123.31,653.113 2127.83,650.5 2128.57,650.5C2128.8,650.5 2129.39,650.749 2130.11,651.112C2131.14,650.548 2132.08,650.106 2132.39,650.106C2133.13,650.106 2137.66,652.72 2138.03,653.362C2138.4,654.004 2138.4,659.23 2138.03,659.873C2137.87,660.143 2136.98,660.762 2135.95,661.388C2135.9,661.879 2135.84,662.244 2135.75,662.386C2135.38,663.028 2130.86,665.641 2130.12,665.641C2129.37,665.641 2124.85,663.028 2124.48,662.386C2124.39,662.238 2124.32,661.844 2124.28,661.32ZM2131.35,651.783C2132.68,652.542 2134.02,653.419 2134.21,653.755C2134.3,653.904 2134.36,654.297 2134.41,654.822C2135.11,655.273 2135.64,655.672 2135.75,655.875C2135.97,656.257 2136.06,658.26 2136.02,659.956C2136.46,659.664 2136.82,659.401 2137,659.277C2137.04,658.876 2137.16,657.596 2137.16,656.617C2137.16,655.638 2137.04,654.359 2137,653.957C2136.67,653.721 2135.62,652.977 2134.77,652.488C2133.93,651.998 2132.76,651.463 2132.39,651.297C2132.2,651.382 2131.81,651.562 2131.35,651.783ZM2131.1,652.963C2131.06,652.927 2131,652.908 2130.96,652.881C2130.11,652.392 2128.94,651.856 2128.57,651.691C2128.21,651.856 2127.04,652.392 2126.19,652.881C2125.34,653.371 2124.29,654.115 2123.97,654.351C2123.93,654.752 2123.8,656.032 2123.8,657.011C2123.8,657.99 2123.93,659.269 2123.97,659.671C2124.03,659.713 2124.11,659.772 2124.21,659.842C2124.17,658.171 2124.26,656.249 2124.48,655.875C2124.85,655.233 2129.37,652.62 2130.12,652.62C2130.28,652.62 2130.64,652.752 2131.1,652.963ZM2125.51,661.791C2125.84,662.026 2126.88,662.771 2127.73,663.26C2128.58,663.75 2129.75,664.285 2130.12,664.451C2130.48,664.285 2131.65,663.75 2132.5,663.26C2133.35,662.771 2134.39,662.026 2134.72,661.791C2134.76,661.389 2134.88,660.11 2134.88,659.131C2134.88,658.152 2134.76,656.872 2134.72,656.471C2134.39,656.235 2133.35,655.491 2132.5,655.001C2131.65,654.512 2130.48,653.976 2130.12,653.81C2129.75,653.976 2128.58,654.512 2127.73,655.001C2126.88,655.491 2125.84,656.235 2125.51,656.471C2125.47,656.872 2125.35,658.152 2125.35,659.131C2125.35,660.11 2125.47,661.389 2125.51,661.791ZM2127.83,660.273L2127.98,660.273C2128.01,660.815 2128.22,661.261 2128.63,661.613C2129.03,661.96 2129.49,662.133 2130,662.133C2130.4,662.133 2130.72,662.021 2130.97,661.797C2131.22,661.572 2131.35,661.304 2131.35,660.99C2131.35,660.66 2131.23,660.404 2130.99,660.222C2130.75,660.045 2130.29,659.844 2129.61,659.619C2129.06,659.437 2128.67,659.287 2128.43,659.169C2128.16,659.029 2127.95,658.841 2127.8,658.604C2127.63,658.363 2127.55,658.092 2127.55,657.791C2127.55,657.457 2127.66,657.129 2127.89,656.807C2127.84,656.972 2127.81,657.116 2127.81,657.239C2127.81,657.569 2127.89,657.859 2128.05,658.109C2128.21,658.367 2128.41,658.561 2128.64,658.693C2128.88,658.828 2129.28,658.983 2129.83,659.156C2130.55,659.376 2131.08,659.619 2131.4,659.886C2131.71,660.144 2131.86,660.491 2131.86,660.927C2131.86,661.354 2131.7,661.742 2131.38,662.089C2131.05,662.44 2130.57,662.615 2129.92,662.615C2129.66,662.615 2129.29,662.567 2128.83,662.469C2128.42,662.385 2128.12,662.34 2127.91,662.336L2127.87,662.285C2127.87,662.213 2127.87,662.12 2127.87,662.006C2127.87,661.871 2127.86,661.661 2127.84,661.378C2127.82,661.094 2127.8,660.883 2127.8,660.743C2127.8,660.561 2127.81,660.404 2127.83,660.273ZM2132.31,657.62L2132.18,657.62C2132.17,657.129 2131.98,656.765 2131.59,656.528C2131.22,656.295 2130.76,656.179 2130.22,656.179C2129.8,656.179 2129.44,656.27 2129.17,656.452C2128.89,656.634 2128.75,656.852 2128.75,657.106C2128.75,657.377 2128.86,657.59 2129.08,657.747C2129.31,657.916 2129.76,658.117 2130.43,658.35C2131.06,658.566 2131.5,658.741 2131.75,658.877C2132.01,659.025 2132.24,659.236 2132.41,659.511C2132.59,659.795 2132.68,660.11 2132.68,660.457C2132.68,660.986 2132.49,661.401 2132.1,661.701C2132.24,661.503 2132.31,661.223 2132.31,660.864C2132.31,660.525 2132.23,660.225 2132.08,659.962C2131.91,659.696 2131.71,659.484 2131.47,659.327C2131.22,659.167 2130.82,658.995 2130.27,658.813C2129.43,658.538 2128.89,658.303 2128.64,658.109C2128.38,657.91 2128.26,657.601 2128.26,657.182C2128.26,656.699 2128.45,656.321 2128.84,656.046C2129.23,655.779 2129.78,655.646 2130.5,655.646C2130.98,655.646 2131.58,655.73 2132.28,655.9L2132.28,655.944L2132.29,656.185C2132.29,656.312 2132.3,656.465 2132.3,656.642C2132.32,656.858 2132.32,657.049 2132.32,657.214C2132.32,657.324 2132.32,657.459 2132.31,657.62Z"/>
    </g>
</svg>
