<?xml version="1.0" encoding="UTF-8" standalone="no"?>
<!DOCTYPE svg PUBLIC "-//W3C//DTD SVG 1.1//EN" "http://www.w3.org/Graphics/SVG/1.1/DTD/svg11.dtd">
<svg width="100%" height="100%" viewBox="0 0 256 256" version="1.1" xmlns="http://www.w3.org/2000/svg" xmlns:xlink="http://www.w3.org/1999/xlink" xml:space="preserve" xmlns:serif="http://www.serif.com/" style="fill-rule:evenodd;clip-rule:evenodd;stroke-linejoin:round;stroke-miterlimit:2;">
    <g transform="matrix(6.39053,0,0,6.39053,0.189413,83.5255)">
        <path d="M38.088,0L40,0L40,25L0,25L0,0L2.175,0L4.367,-0.414L31.448,-12.981L34.629,-6.126L36.852,-6.546L38.088,0ZM14.379,-2.304L32.095,-5.648L30.233,-9.661L14.379,-2.304ZM15.652,0L35.544,0L34.859,-3.626L15.652,0ZM37.5,2.5L2.5,2.5L2.5,22.5L37.5,22.5L37.5,2.5ZM20,20.736L6.273,20.736L6.273,17.991L3.528,17.991L3.528,7.009L6.273,7.009L6.273,4.264L20,4.264C15.482,4.264 11.764,7.982 11.764,12.5C11.764,17.018 15.482,20.736 20,20.736ZM20,4.264L33.727,4.264L33.727,7.009L36.472,7.009L36.472,17.991L33.727,17.991L33.727,20.736L20,20.736C24.518,20.736 28.236,17.018 28.236,12.5C28.236,7.982 24.518,4.264 20,4.264ZM23.122,15.23C23.121,15.212 23.092,14.352 23.092,14.352L22.872,9.431L20.018,15.685L16.325,7.799L17.083,7.799L20,14.03L22.863,7.799L23.55,7.799L23.97,17.201L23.622,17.201C23.372,17.201 23.045,17.219 22.64,17.255L22.052,17.308L22.052,17.147C22.765,16.951 23.122,16.312 23.122,15.23ZM24.63,17.201L24.201,7.799L24.505,7.799C24.939,7.799 25.548,7.763 26.333,7.692L26.333,7.853C25.923,7.924 25.608,8.114 25.388,8.423C25.156,8.733 25.04,9.107 25.04,9.547L25.058,10.502L25.254,14.775C25.29,15.554 25.412,16.128 25.62,16.496C25.828,16.871 26.155,17.088 26.601,17.147L26.601,17.308C25.721,17.237 25.064,17.201 24.63,17.201ZM15.593,7.799L19.661,16.461L19.251,17.308L15.558,9.44L15.326,14.766C15.314,15.301 15.308,15.521 15.308,15.426C15.308,16.467 15.709,17.04 16.512,17.147L16.512,17.308C16.506,17.308 16.423,17.299 16.262,17.281C15.596,17.228 15.156,17.201 14.942,17.201C14.657,17.201 14.142,17.237 13.399,17.308L13.399,17.147C14.154,16.951 14.565,16.178 14.63,14.828L14.889,8.736C14.538,8.296 14.041,8.001 13.399,7.853L13.399,7.692C13.881,7.745 14.395,7.775 14.942,7.781L15.593,7.799Z"/>
    </g>
</svg>
