<?xml version="1.0" encoding="UTF-8" standalone="no"?>
<!DOCTYPE svg PUBLIC "-//W3C//DTD SVG 1.1//EN" "http://www.w3.org/Graphics/SVG/1.1/DTD/svg11.dtd">
<svg width="100%" height="100%" viewBox="0 0 256 256" version="1.1" xmlns="http://www.w3.org/2000/svg" xmlns:xlink="http://www.w3.org/1999/xlink" xml:space="preserve" xmlns:serif="http://www.serif.com/" style="fill-rule:evenodd;clip-rule:evenodd;stroke-linejoin:round;stroke-miterlimit:2;">
    <g transform="matrix(1.02062,0,0,1.02062,-3.00939,-1.39813)">
        <path d="M3.134,239.744L3.134,83.208L14.513,83.208L28.239,80.617L197.804,1.928L217.721,44.847L231.641,42.22L239.378,83.208L253.591,83.208L253.591,239.744L3.134,239.744ZM237.938,201.231L237.938,121.721C236.712,121.963 235.446,122.09 234.15,122.09C223.42,122.09 214.709,113.379 214.709,102.649C214.709,101.353 214.836,100.087 215.078,98.862L41.647,98.862C41.889,100.087 42.016,101.353 42.016,102.649C42.016,113.379 33.305,122.09 22.575,122.09C21.279,122.09 20.013,121.963 18.788,121.721L18.788,201.231C20.013,200.988 21.279,200.861 22.575,200.861C33.305,200.861 42.016,209.573 42.016,220.302C42.016,221.598 41.889,222.865 41.647,224.09L215.078,224.09C214.836,222.865 214.709,221.598 214.709,220.302C214.709,209.573 223.42,200.861 234.15,200.861C235.446,200.861 236.712,200.988 237.938,201.231ZM143.015,140.046L157.667,175.148L170.047,144.982C172.815,138.244 174.199,133.047 174.199,129.39C174.199,124.532 171.901,121.529 167.304,120.38L167.304,118.969C173.102,119.596 177.333,119.909 179.997,119.909C184.699,119.909 189.269,119.596 193.709,118.969L193.709,120.38C190.053,122.469 187.154,124.976 185.012,127.902C182.766,130.983 179.971,136.546 176.628,144.591L157.667,190.584L128.049,119.909C134.422,119.648 139.985,119.335 144.738,118.969L144.738,120.38C141.186,121.581 139.41,123.775 139.41,126.961C139.41,129.939 140.612,134.3 143.015,140.046ZM206.808,148.377C214.037,148.377 219.906,154.246 219.906,161.476C219.906,168.705 214.037,174.574 206.808,174.574C199.578,174.574 193.709,168.705 193.709,161.476C193.709,154.246 199.578,148.377 206.808,148.377ZM77.433,119.909L111.987,197.949L109.245,203.982L107.913,203.982L78.608,137.696C74.064,127.458 68.867,121.685 63.016,120.38L63.016,118.969C65.785,119.387 70.59,119.701 77.433,119.909ZM49.918,148.377C57.147,148.377 63.016,154.246 63.016,161.476C63.016,168.705 57.147,174.574 49.918,174.574C42.688,174.574 36.819,168.705 36.819,161.476C36.819,154.246 42.688,148.377 49.918,148.377ZM121.859,119.909L154.611,197.871L152.182,203.982L150.537,203.982L130.321,156.109L115.199,190.819L83.936,119.909C84.25,119.857 86.862,119.753 91.772,119.596L95.219,119.361L100.234,118.969L100.234,120.38C96.943,121.685 95.298,123.723 95.298,126.491C95.298,129.26 96.577,133.543 99.137,139.341L115.199,175.854L127.187,148.665L122.251,136.912C120.057,131.636 117.942,127.875 115.905,125.629C113.92,123.383 110.968,121.633 107.051,120.38L107.051,118.969C112.222,119.492 117.158,119.805 121.859,119.909ZM90.925,68.783L201.854,47.843L190.194,22.716L90.925,68.783ZM223.448,83.208L219.162,60.505L98.9,83.208L223.448,83.208Z"/>
    </g>
</svg>
