<?xml version="1.0" encoding="UTF-8" standalone="no"?>
<!DOCTYPE svg PUBLIC "-//W3C//DTD SVG 1.1//EN" "http://www.w3.org/Graphics/SVG/1.1/DTD/svg11.dtd">
<svg width="100%" height="100%" viewBox="0 0 256 256" version="1.1" xmlns="http://www.w3.org/2000/svg" xmlns:xlink="http://www.w3.org/1999/xlink" xml:space="preserve" xmlns:serif="http://www.serif.com/" style="fill-rule:evenodd;clip-rule:evenodd;stroke-linejoin:round;stroke-miterlimit:2;">
    <g transform="matrix(6.64821,0,0,6.64821,-4.96425,-4.96424)">
        <path d="M27.742,1.648C25.111,1.661 22.729,3.1 21.913,5.594C23.582,5.532 23.726,9.806 23.726,9.806L26.977,10.295C25.93,11.308 23.069,10.762 23.069,10.762C21.73,12.26 20.481,13.962 19.338,15.26C18.092,16.676 16.588,18.237 14.883,19.954C14.353,20.487 18.133,19.187 17.566,19.751C15.647,20.747 14.262,21.008 12.741,22.256C10.295,24.262 7.831,26.999 6.402,28.462C5.799,29.08 2.936,31.405 8.001,31.176C8.189,31.763 7.874,31.914 7.415,32.37C7.077,32.707 6.003,32.392 5.676,32.591C3.944,35.33 4.329,35.558 3.533,37.126C3.201,38.035 6.789,36.001 8.557,34.456C9.649,33.864 10.521,32.764 11.291,33.112C14.659,34.595 21.434,35.888 22.333,35.27C23.768,34.282 21.526,31.649 22.632,27.62C24.466,28.075 26.056,28.687 27.848,28.516C27.725,32.368 28.126,32.836 27.544,36.701L32.164,38.352L32.313,37.273L29.671,35.517C30.809,31.559 30.985,29.847 30.861,26.008C30.848,25.588 27.332,24.107 25.041,23.419L26.494,21.043C28.868,17.544 36.192,16.195 36.489,14.148C35.471,12.611 36.725,12.009 34.528,12.436C34.036,12.539 33.452,14.338 33.12,14.562C32.507,14.974 29.944,16.474 29.061,15.998C28.913,15.918 29.628,13.385 29.597,12.499C29.588,12.249 29.504,11.982 29.373,11.718C29.387,11.668 30.563,7.618 33.655,4.373C30.219,6.337 28.551,10.617 28.549,10.622C28.376,10.455 28.199,10.31 28.03,10.198C27.881,9.049 27.654,4.493 33.389,4.044C31.715,2.389 29.663,1.639 27.742,1.648" style="fill-rule:nonzero;"/>
    </g>
</svg>
