<?xml version="1.0" encoding="UTF-8" standalone="no"?>
<!DOCTYPE svg PUBLIC "-//W3C//DTD SVG 1.1//EN" "http://www.w3.org/Graphics/SVG/1.1/DTD/svg11.dtd">
<svg width="100%" height="100%" viewBox="0 0 256 256" version="1.1" xmlns="http://www.w3.org/2000/svg" xmlns:xlink="http://www.w3.org/1999/xlink" xml:space="preserve" xmlns:serif="http://www.serif.com/" style="fill-rule:evenodd;clip-rule:evenodd;stroke-linejoin:round;stroke-miterlimit:2;">
    <g transform="matrix(8.80759,0,0,8.80759,-9085.39,-17079)">
        <path d="M1052.36,1951.32C1052.36,1951.32 1054.54,1954.17 1054.93,1954.12C1055.33,1954.08 1057.69,1953.34 1058.17,1953.21C1058.65,1953.08 1059.13,1952.94 1059.62,1952.86C1060.1,1952.77 1060.58,1951.85 1060.36,1951.5C1060.14,1951.15 1059.56,1951.24 1058.85,1951.48C1058.31,1951.66 1058.64,1952.16 1058.26,1952.24C1057.65,1952.38 1055.68,1952.51 1055.33,1952.42C1054.98,1952.33 1054.32,1950.67 1054.15,1950.27C1053.97,1949.88 1053.62,1948.44 1053.45,1948.04C1053.27,1947.65 1054.15,1947.26 1054.58,1947.34C1055.02,1947.43 1056.17,1947.08 1056.2,1946.56C1056.24,1945.92 1056.61,1945.94 1056.75,1945.83C1056.89,1945.71 1056.38,1944.98 1056.38,1944.08C1056.38,1943.75 1055.96,1942.95 1055.06,1942.89C1054.16,1942.84 1053.4,1943.26 1053.24,1943.35C1053.08,1943.44 1050.44,1943.62 1050.44,1943.62L1052.74,1944.34C1052.74,1944.34 1052.54,1944.95 1052.54,1945.23C1052.54,1945.52 1052.79,1946.11 1052.5,1946.22C1052.22,1946.33 1051.16,1946.17 1050.75,1946.06C1050.34,1945.95 1047.11,1943.26 1046.37,1943.33C1045.64,1943.41 1044.63,1944.27 1044.63,1944.27L1035.22,1944.52L1042.14,1945.25L1040.48,1945.75L1042.84,1946.11C1042.84,1946.11 1041.91,1947.47 1041.73,1947.72C1041.55,1947.96 1041.19,1948.23 1041.1,1948.5C1041.01,1948.77 1041.68,1949.44 1042.11,1949.44C1042.53,1949.44 1042.76,1948.7 1042.83,1948.43C1042.89,1948.16 1045.29,1945.59 1046.07,1945.5C1046.86,1945.41 1048.69,1947.27 1048.45,1947.83C1048.2,1948.39 1045.7,1951.93 1045.31,1952.13C1044.92,1952.33 1039.96,1952.27 1039.35,1952.41C1038.73,1952.55 1043.81,1953.23 1044.07,1953.59C1044.19,1953.77 1043.97,1953.73 1043.65,1954.27C1043.39,1954.71 1043.34,1954.91 1043.24,1955C1042.88,1955.28 1032.35,1955.27 1031.76,1955.41C1031.17,1955.55 1041.15,1956.06 1041.59,1956.28C1042.09,1956.53 1041.1,1956.84 1040.48,1957.31C1040.07,1957.63 1039.63,1958.15 1038.81,1958.49C1038,1958.82 1037.56,1958.87 1036.99,1959.16C1035.89,1959.72 1034.7,1960.64 1034.28,1960.92C1033.86,1961.2 1033.44,1961.15 1032.85,1961.62C1032.5,1961.91 1032.48,1964.07 1032.65,1964.17C1033.86,1964.85 1033.3,1963.03 1034.03,1962.61C1034.75,1962.18 1036.43,1961.26 1036.8,1961.12C1037.16,1960.98 1038.79,1960.17 1039.29,1960.03C1039.57,1959.95 1041.4,1959.48 1043.03,1958.72C1044.35,1958.11 1045.51,1957.17 1045.79,1957.14C1046.4,1957.09 1048.95,1958.43 1048.92,1958.74C1048.9,1959.05 1048.14,1959.16 1047.24,1959.55C1046.81,1959.74 1043.83,1961.46 1043.6,1961.93C1043.38,1962.41 1044.97,1964.46 1045.26,1964.42C1046.26,1964.31 1044.92,1962.63 1045.12,1962.41C1045.31,1962.18 1052.97,1959.73 1052.9,1958.99C1052.79,1957.76 1049.06,1954.99 1049.04,1954.65C1049.01,1954.32 1052.36,1951.32 1052.36,1951.32Z"/>
    </g>
</svg>
