<?xml version="1.0" encoding="UTF-8" standalone="no"?>
<!DOCTYPE svg PUBLIC "-//W3C//DTD SVG 1.1//EN" "http://www.w3.org/Graphics/SVG/1.1/DTD/svg11.dtd">
<svg width="100%" height="100%" viewBox="0 0 256 256" version="1.1" xmlns="http://www.w3.org/2000/svg" xmlns:xlink="http://www.w3.org/1999/xlink" xml:space="preserve" xmlns:serif="http://www.serif.com/" style="fill-rule:evenodd;clip-rule:evenodd;stroke-linejoin:round;stroke-miterlimit:2;">
    <g transform="matrix(8.29035,0,0,8.29035,-27123.5,-4908.73)">
        <path d="M3287.14,592.43C3287.87,592.518 3291.55,594.407 3293.39,595.648C3294.01,596.07 3295.15,595.891 3295.32,596.077C3295.05,596.463 3294.94,599.021 3295.28,599.805C3295.77,600.968 3296.72,602.333 3297.77,602.937C3298.09,603.118 3298.62,603.407 3299.03,603.394C3298.71,606.345 3297.13,613.306 3296.23,614.994C3296.02,615.397 3290.73,621.378 3287.14,622.652C3283.55,621.378 3278.26,615.397 3278.04,614.994C3277.14,613.306 3275.57,606.345 3275.24,603.394C3275.66,603.407 3276.19,603.118 3276.5,602.937C3277.56,602.333 3278.5,600.968 3279,599.805C3279.33,599.021 3279.23,596.463 3278.95,596.077C3279.12,595.891 3280.26,596.07 3280.89,595.648C3282.72,594.407 3286.41,592.518 3287.14,592.43ZM3294.32,596.756C3294.19,596.742 3294.07,596.726 3293.96,596.708C3293.58,596.644 3293.22,596.524 3292.93,596.327C3291.67,595.479 3289.54,594.322 3288.12,593.674C3287.69,593.476 3287.34,593.321 3287.14,593.264L3287.14,593.264C3286.93,593.321 3286.59,593.476 3286.15,593.674C3284.74,594.322 3282.6,595.479 3281.35,596.327C3281.06,596.524 3280.69,596.644 3280.32,596.708C3280.21,596.726 3280.08,596.742 3279.95,596.756C3279.96,596.775 3279.96,596.795 3279.96,596.814C3280.08,597.881 3280.02,599.499 3279.75,600.126C3279.19,601.44 3278.1,602.965 3276.91,603.648C3276.71,603.763 3276.44,603.903 3276.15,604.014C3276.6,607.169 3277.95,613.087 3278.77,614.608C3278.87,614.799 3280.19,616.29 3281.89,617.902C3283.51,619.44 3285.48,621.088 3287.14,621.774C3288.79,621.088 3290.76,619.44 3292.39,617.902C3294.09,616.29 3295.41,614.799 3295.51,614.608C3296.32,613.087 3297.68,607.169 3298.13,604.014C3297.84,603.903 3297.57,603.763 3297.36,603.648C3296.18,602.965 3295.08,601.44 3294.52,600.126C3294.26,599.499 3294.2,597.881 3294.31,596.814C3294.32,596.795 3294.32,596.775 3294.32,596.756Z"/>
    </g>
</svg>
