<?xml version="1.0" encoding="UTF-8" standalone="no"?>
<!DOCTYPE svg PUBLIC "-//W3C//DTD SVG 1.1//EN" "http://www.w3.org/Graphics/SVG/1.1/DTD/svg11.dtd">
<svg width="100%" height="100%" viewBox="0 0 256 256" version="1.1" xmlns="http://www.w3.org/2000/svg" xmlns:xlink="http://www.w3.org/1999/xlink" xml:space="preserve" xmlns:serif="http://www.serif.com/" style="fill-rule:evenodd;clip-rule:evenodd;stroke-linejoin:round;stroke-miterlimit:2;">
    <g transform="matrix(2.77245,0,0,2.77245,-5792.42,-73.1334)">
        <path d="M2124.76,74C2124.76,73.996 2124.76,73.991 2124.76,73.987L2144.67,73.987C2142.74,79.274 2142.53,82.636 2143.35,85.137C2144.3,88.004 2146.45,89.649 2148.08,91.68C2151.03,95.353 2153.37,99.706 2150.26,108.998C2150.57,108.99 2150.87,108.981 2151.18,108.969L2154.7,108.831C2155.25,108.81 2155.72,109.24 2155.74,109.792L2156.01,116.838C2156.04,117.39 2155.61,117.854 2155.05,117.876L2151.53,118.013C2128.36,118.916 2104.81,108.39 2094.2,97.78L2091.71,95.287C2091.32,94.896 2091.32,94.263 2091.71,93.872L2096.7,88.888C2097.09,88.497 2097.72,88.498 2098.11,88.888L2100.61,91.382C2100.85,91.629 2101.11,91.875 2101.37,92.121C2102.35,88.296 2103.85,85.778 2105.59,83.995C2107.66,81.875 2110.13,80.744 2112.82,79.938C2114.49,79.438 2116.29,79.127 2118.08,78.559L2100.32,74L2124.76,74ZM2142.78,108.6L2143.03,107.937C2144.58,103.793 2144.83,101.096 2144.16,99.033C2143.47,96.92 2141.96,95.545 2140.6,93.99C2138.53,91.61 2136.63,89.013 2135.98,85.08C2135.76,83.752 2135.68,82.248 2135.82,80.518C2129.62,93.66 2130.74,107.276 2142.78,108.6ZM2129.83,79.137C2129.14,79.955 2128.44,80.666 2127.73,81.29C2124.65,83.981 2121.3,85.107 2118.02,85.968C2115.34,86.674 2112.68,86.996 2110.72,89.004C2109.48,90.281 2108.6,92.239 2108.01,95.264L2107.72,96.75C2118.59,101.514 2127.25,92.479 2129.83,79.137ZM2145.84,71.1C2145.83,71.101 2145.83,71.102 2145.83,71.102L2126.51,71.102C2127.28,69.547 2127.98,67.677 2128.6,65.423C2129.2,63.237 2129.32,61.589 2129,60.235C2128.51,58.18 2127.07,56.896 2125.61,55.416L2125.11,54.907C2123.18,53.264 2121.77,51.388 2120.89,49.231C2119.51,45.867 2119.39,41.623 2121.38,36.082C2120.82,36.089 2120.26,36.104 2119.71,36.125L2116.18,36.263C2115.63,36.284 2115.17,35.854 2115.15,35.302L2114.87,28.256C2114.85,27.705 2115.28,27.24 2115.83,27.218L2119.36,27.081C2142.53,26.178 2166.08,36.704 2176.68,47.314L2179.18,49.808C2179.57,50.198 2179.57,50.831 2179.18,51.222L2174.19,56.206C2173.8,56.597 2173.16,56.597 2172.78,56.206L2170.3,53.727C2168.51,58.37 2166.08,61.315 2163.13,63.062C2161.69,63.916 2160.1,64.508 2158.34,64.836L2158.34,64.839L2158.26,64.85C2157.86,64.922 2157.46,64.98 2157.05,65.025L2154.79,65.35C2153.73,65.503 2152.64,65.684 2151.59,66.014L2171.21,71.1L2145.84,71.1ZM2130.95,36.626C2129.04,40.681 2128.34,43.549 2129.27,45.81C2129.89,47.328 2131.24,48.391 2132.96,49.398C2135.41,50.837 2138.55,52.01 2142.15,53.219C2146.45,54.664 2150.06,55.672 2153.11,55.991C2155.28,56.219 2157.07,56.131 2158.51,55.277C2160.56,54.064 2161.71,51.567 2162.72,47.782C2154.48,42.528 2143.03,38.126 2130.95,36.626Z"/>
    </g>
</svg>
