<?xml version="1.0" encoding="UTF-8" standalone="no"?>
<!DOCTYPE svg PUBLIC "-//W3C//DTD SVG 1.1//EN" "http://www.w3.org/Graphics/SVG/1.1/DTD/svg11.dtd">
<svg width="100%" height="100%" viewBox="0 0 256 256" version="1.1" xmlns="http://www.w3.org/2000/svg" xmlns:xlink="http://www.w3.org/1999/xlink" xml:space="preserve" xmlns:serif="http://www.serif.com/" style="fill-rule:evenodd;clip-rule:evenodd;stroke-linejoin:round;stroke-miterlimit:2;">
    <g transform="matrix(4.85162,0,0,4.69812,-4129.83,-437.29)">
        <path d="M895.682,110.042L895.682,143.312C895.682,145.372 894.062,147.044 892.068,147.044L863.152,147.044C861.157,147.044 859.538,145.372 859.538,143.312L859.538,110.042C859.538,107.982 861.157,106.31 863.152,106.31L892.068,106.31C894.062,106.31 895.682,107.982 895.682,110.042ZM868.381,114.167C868.381,113.155 867.586,112.334 866.607,112.334C865.627,112.334 864.832,113.155 864.832,114.167L864.832,139.404C864.832,140.415 865.627,141.236 866.607,141.236C867.586,141.236 868.381,140.415 868.381,139.404L868.381,114.167ZM879.384,114.167C879.384,113.155 878.589,112.334 877.61,112.334C876.63,112.334 875.835,113.155 875.835,114.167L875.835,139.404C875.835,140.415 876.63,141.236 877.61,141.236C878.589,141.236 879.384,140.415 879.384,139.404L879.384,114.167ZM889.679,114.167C889.679,113.155 888.884,112.334 887.904,112.334C886.925,112.334 886.13,113.155 886.13,114.167L886.13,139.404C886.13,140.415 886.925,141.236 887.904,141.236C888.884,141.236 889.679,140.415 889.679,139.404L889.679,114.167ZM871.209,97.682L871.209,95.871C871.209,94.618 872.194,93.601 873.407,93.601L881.813,93.601C883.026,93.601 884.011,94.618 884.011,95.871L884.011,97.682L896.778,97.682C897.538,97.682 898.154,98.319 898.154,99.104L898.154,101.946C898.154,102.731 897.538,103.368 896.778,103.368L858.441,103.368C857.682,103.368 857.065,102.731 857.065,101.946L857.065,99.104C857.065,98.319 857.682,97.682 858.441,97.682L871.209,97.682Z"/>
    </g>
</svg>
